<?xml version="1.0" encoding="UTF-8" standalone="no"?>
<!-- Generator: Adobe Illustrator 16.0.0, SVG Export Plug-In . SVG Version: 6.00 Build 0)  -->

<svg
   xmlns:dc="http://purl.org/dc/elements/1.1/"
   xmlns:cc="http://creativecommons.org/ns#"
   xmlns:rdf="http://www.w3.org/1999/02/22-rdf-syntax-ns#"
   xmlns:svg="http://www.w3.org/2000/svg"
   xmlns="http://www.w3.org/2000/svg"
   xmlns:sodipodi="http://sodipodi.sourceforge.net/DTD/sodipodi-0.dtd"
   xmlns:inkscape="http://www.inkscape.org/namespaces/inkscape"
   version="1.1"
   id="Capa_1"
   x="0px"
   y="0px"
   width="369mm"
   height="93mm"
   viewBox="0 0 1394.643 351.49599"
   xml:space="preserve"
   sodipodi:docname="logo.svg"
   inkscape:version="0.92.1 unknown"><metadata
     id="metadata45"><rdf:RDF><cc:Work
         rdf:about=""><dc:format>image/svg+xml</dc:format><dc:type
           rdf:resource="http://purl.org/dc/dcmitype/StillImage" /><dc:title></dc:title></cc:Work></rdf:RDF></metadata><defs
     id="defs43" /><sodipodi:namedview
     pagecolor="#ffffff"
     bordercolor="#666666"
     borderopacity="1"
     objecttolerance="10"
     gridtolerance="10"
     guidetolerance="10"
     inkscape:pageopacity="0"
     inkscape:pageshadow="2"
     inkscape:window-width="1366"
     inkscape:window-height="744"
     id="namedview41"
     showgrid="false"
     showguides="false"
     inkscape:snap-page="true"
     inkscape:zoom="0.33577864"
     inkscape:cx="619.11073"
     inkscape:cy="121.37762"
     inkscape:window-x="0"
     inkscape:window-y="24"
     inkscape:window-maximized="1"
     inkscape:current-layer="Capa_1"
     units="mm"
     width="209mm" /><g
     id="g8"
     transform="matrix(0.40640462,0,0,0.40640462,83.507385,138.07044)"><g
       id="g6"><path
         d="m 350.552,103.992 c 0.555,-5.709 0.87,-11.484 0.87,-17.327 0,-3.835 -0.335,-7.583 -0.573,-11.36 H 0.574 C 0.335,79.082 0,82.83 0,86.665 c 0,5.853 0.315,11.628 0.87,17.327 z"
         id="path2"
         inkscape:connector-curvature="0" /><path
         d="m 246.837,276.117 v -28.869 c 53.703,-23.82 93.091,-73.746 102.318,-133.693 H 2.276 c 9.706,63.017 52.756,114.884 110.686,137.069 v 25.493 z"
         id="path4"
         inkscape:connector-curvature="0" /></g></g><g
     id="g10"
     transform="translate(0,0.07402964)" /><g
     id="g12"
     transform="translate(0,0.07402964)" /><g
     id="g14"
     transform="translate(0,0.07402964)" /><g
     id="g16"
     transform="translate(0,0.07402964)" /><g
     id="g18"
     transform="translate(0,0.07402964)" /><g
     id="g20"
     transform="translate(0,0.07402964)" /><g
     id="g22"
     transform="translate(0,0.07402964)" /><g
     id="g24"
     transform="translate(0,0.07402964)" /><g
     id="g26"
     transform="translate(0,0.07402964)" /><g
     id="g28"
     transform="translate(0,0.07402964)" /><g
     id="g30"
     transform="translate(0,0.07402964)" /><g
     id="g32"
     transform="translate(0,0.07402964)" /><g
     id="g34"
     transform="translate(0,0.07402964)" /><g
     id="g36"
     transform="translate(0,0.07402964)" /><g
     id="g38"
     transform="translate(0,0.07402964)" /><rect
     style="fill:#000000;fill-opacity:1;stroke:none;stroke-width:0.61057752;stroke-opacity:1"
     id="rect4524"
     width="5.2269707"
     height="70.297058"
     x="233.87242"
     y="65.974503"
     ry="1.1070393"
     transform="matrix(0.97695475,0.21344653,-0.4176643,0.90860142,0,0)" /><rect
     style="fill:#000000;fill-opacity:1;stroke:none;stroke-width:0.61057752;stroke-opacity:1"
     id="rect4524-3"
     width="5.2269707"
     height="70.297058"
     x="214.67603"
     y="90.290955"
     ry="1.1070392"
     transform="matrix(0.99287939,0.11912395,-0.32893841,0.94435138,0,0)" /><circle
     style="fill:none;fill-opacity:1;stroke:#000000;stroke-width:10.60536957;stroke-miterlimit:4;stroke-dasharray:none;stroke-opacity:1"
     id="path4543"
     cx="154.86392"
     cy="174.29547"
     r="95.072075" /><text
     xml:space="preserve"
     style="font-style:normal;font-variant:normal;font-weight:normal;font-stretch:normal;font-size:231.00346375px;line-height:1.25;font-family:Ubuntu;-inkscape-font-specification:Ubuntu;letter-spacing:0px;word-spacing:0px;fill:#000000;fill-opacity:1;stroke:none;stroke-width:5.7750864"
     x="298.22635"
     y="237.96046"
     id="text4505"><tspan
       sodipodi:role="line"
       x="298.22635"
       y="237.96046"
       id="tspan4507"
       style="stroke-width:5.7750864">miayam.in</tspan></text>
</svg>